<?xml version="1.0" encoding="utf-8"?>
<svg version="1.1" xmlns:xlink="http://www.w3.org/1999/xlink" width="120px" height="120px" xmlns="http://www.w3.org/2000/svg">
  <defs>
    <linearGradient gradientUnits="userSpaceOnUse" x1="55.6536728797984" y1="26.1948510544486" x2="70.2037045766539" y2="97.8552135019181" id="LinearGradient7">
      <stop id="Stop8" stop-color="#81d3f8" offset="0" />
      <stop id="Stop9" stop-color="#02a7f0" offset="0.47" />
      <stop id="Stop10" stop-color="#3196ff" offset="1" />
    </linearGradient>
    <mask fill="white" id="clip11">
      <path d="M 0 60  C 0 26.4  26.4 0  60 0  C 73.8963157275928 0  86.5610779424245 4.51569621345743  96.6360281961813 12.1888301920585  C 98.7197500400162 13.775803475219  108.488955137107 10.3437521975624  110.33910034602 12.1888301920585  C 111.846214957427 13.6918170880561  107.511664325019 23.0129994157251  108.918012800975 24.599817128925  C 117.621178367536 34.4198137499885  120 45.5115718829863  120 60  C 120 93.6  93.6 120  60 120  C 26.4 120  0 93.6  0 60  Z " fill-rule="evenodd" />
    </mask>
  </defs>
  <g transform="matrix(1 0 0 1 -720 -27 )">
    <path d="M 0 60  C 0 26.4  26.4 0  60 0  C 73.8963157275928 0  86.5610779424245 4.51569621345743  96.6360281961813 12.1888301920585  C 98.7197500400162 13.775803475219  108.488955137107 10.3437521975624  110.33910034602 12.1888301920585  C 111.846214957427 13.6918170880561  107.511664325019 23.0129994157251  108.918012800975 24.599817128925  C 117.621178367536 34.4198137499885  120 45.5115718829863  120 60  C 120 93.6  93.6 120  60 120  C 26.4 120  0 93.6  0 60  Z " fill-rule="nonzero" fill="url(#LinearGradient7)" stroke="none" transform="matrix(1 0 0 1 720 27 )" />
    <path d="M 0 60  C 0 26.4  26.4 0  60 0  C 73.8963157275928 0  86.5610779424245 4.51569621345743  96.6360281961813 12.1888301920585  C 98.7197500400162 13.775803475219  108.488955137107 10.3437521975624  110.33910034602 12.1888301920585  C 111.846214957427 13.6918170880561  107.511664325019 23.0129994157251  108.918012800975 24.599817128925  C 117.621178367536 34.4198137499885  120 45.5115718829863  120 60  C 120 93.6  93.6 120  60 120  C 26.4 120  0 93.6  0 60  Z " stroke-width="2" stroke="#3196ff" fill="none" stroke-opacity="0.168627450980392" transform="matrix(1 0 0 1 720 27 )" mask="url(#clip11)" />
  </g>
</svg>